<?xml version="1.0" standalone="no"?>
<!DOCTYPE svg PUBLIC "-//W3C//DTD SVG 20010904//EN"
 "http://www.w3.org/TR/2001/REC-SVG-20010904/DTD/svg10.dtd">
<svg version="1.0" xmlns="http://www.w3.org/2000/svg"
 width="448.000000pt" height="448.000000pt" viewBox="0 0 448.000000 448.000000"
 preserveAspectRatio="xMidYMid meet">
<metadata>
Created by potrace 1.14, written by Peter Selinger 2001-2017
</metadata>
<g transform="translate(0.000000,448.000000) scale(0.100000,-0.100000)"
fill="#000000" stroke="none">
<path d="M2299 4287 c-39 -33 -149 -209 -149 -238 0 -4 -8 -24 -17 -45 -9 -22
-16 -45 -14 -53 1 -7 -1 -11 -6 -8 -24 15 -450 27 -490 13 -17 -5 -35 3 -80
37 -32 25 -86 58 -120 76 -110 55 -319 105 -350 83 -7 -4 -16 -28 -20 -53 -13
-76 -6 -435 12 -574 4 -32 18 -127 20 -135 1 -3 5 -20 9 -37 4 -18 9 -111 11
-205 1 -95 6 -186 9 -201 11 -46 57 -124 100 -169 54 -54 182 -150 240 -178
25 -12 46 -27 46 -33 0 -7 -7 -48 -16 -92 -9 -44 -18 -93 -20 -110 -2 -16 -6
-39 -8 -50 -19 -81 -28 -242 -30 -535 -1 -268 2 -327 29 -478 18 -105 13 -122
-35 -122 -28 0 -127 61 -189 116 -19 16 -78 83 -131 149 -93 115 -102 123
-186 165 -84 43 -90 45 -173 44 -97 -1 -156 -21 -251 -85 -62 -41 -144 -125
-154 -157 -4 -12 -12 -22 -18 -22 -6 0 -9 -3 -5 -6 3 -4 -1 -21 -10 -38 -33
-63 -43 -128 -38 -246 5 -129 25 -228 56 -271 61 -86 252 -105 337 -34 33 27
61 81 63 117 1 12 -2 70 -7 128 -11 148 -9 178 17 206 33 36 107 67 138 58 14
-4 32 -8 38 -10 34 -6 98 -75 158 -165 36 -55 65 -102 65 -104 0 -8 51 -64 88
-99 60 -55 189 -96 290 -91 l37 1 33 -135 c18 -75 34 -152 37 -171 4 -41 38
-73 126 -120 79 -42 161 -69 228 -76 68 -6 112 -14 121 -19 14 -8 31 14 36 46
3 19 6 96 8 172 3 153 1 150 71 167 68 17 167 47 232 71 34 13 64 21 67 18 6
-6 15 -81 22 -184 7 -114 14 -139 42 -150 29 -12 225 -45 269 -45 57 0 146 20
159 37 13 15 10 75 -7 136 -26 98 -35 193 -34 376 l1 193 40 46 c21 24 47 54
57 65 56 65 62 85 62 222 0 72 -3 165 -7 207 l-7 76 63 104 c34 57 69 114 77
128 8 14 20 32 27 41 45 57 9 115 -200 326 -66 67 -133 127 -149 134 -16 6
-29 15 -29 19 0 3 -23 44 -51 90 l-50 83 38 37 c21 20 61 54 88 75 28 22 53
45 57 50 13 17 -2 66 -47 155 -64 128 -97 239 -130 437 -8 50 -22 110 -30 134
-16 45 -78 136 -105 156 -10 7 -17 23 -17 37 0 91 -93 298 -198 444 -74 102
-96 112 -146 69z"/>
</g>
</svg>
